<?xml version="1.0" encoding="UTF-8"?>
<svg width="150px" height="150px" viewBox="0 0 150 150" version="1.1" xmlns="http://www.w3.org/2000/svg" xmlns:xlink="http://www.w3.org/1999/xlink">
    <!-- Generator: Sketch 41.2 (35397) - http://www.bohemiancoding.com/sketch -->
    <title>l1</title>
    <desc>Created with Sketch.</desc>
    <defs></defs>
    <g id="Page-1" stroke="none" stroke-width="1" fill="none" fill-rule="evenodd">
        <g id="Artboard" transform="translate(-120.000000, -131.000000)">
            <g id="l1" transform="translate(120.000000, 131.000000)">
                <circle id="Oval" fill="#C52557" cx="75" cy="75" r="75"></circle>
                <path d="M82.672,130.768 C82.288,128.144 82.16,125.84 82.16,122.448 L82.16,90.064 C82.16,86.224 82.288,83.28 82.672,79.504 C80.368,79.76 79.408,79.824 76.144,79.824 L70.256,79.824 C67.248,79.824 65.84,79.76 63.856,79.44 L63.856,87.568 C66.224,87.312 68.08,87.184 70.448,87.184 L73.52,87.184 L73.52,122.448 C73.52,125.776 73.392,128.272 73.008,130.768 L82.672,130.768 Z" id="1" fill="#FFFFFF"></path>
                <path d="M98.704,59.576 C96.016,59.896 93.968,60.024 89.616,60.024 L71.696,60.024 L71.696,26.232 C71.696,21.56 71.824,19.448 72.208,16.824 L62.544,16.824 C62.928,19.576 63.056,21.88 63.056,26.296 L63.056,59.512 C63.056,63.224 62.928,65.592 62.544,67.96 C64.848,67.832 67.088,67.768 70.672,67.768 L89.616,67.768 C94.16,67.768 96.4,67.896 98.704,68.216 L98.704,59.576 Z" id="L" fill="#FFFFFF"></path>
            </g>
        </g>
    </g>
</svg>